With: Samuel L. Jackson, Jessica Biel and Curtis '50 Cent' Jackson

Een oorlogsdokter keert terug naar huis na enkele maanden aan het Iraakse front te hebben gezeten. Maar zijn familie, vrienden en vooral zijn vrouw, herkennen hem niet meer. Met hem keren veel soldaten terug van de strijd, ieder met zo zijn eigen problemen om weer terug te keren in de 'normale' maatschappij.

Three soldiers struggle to readjust to life at home after returning home from a lengthy tour in Iraq.
 
http://www.imdb.com/title/tt0763840	

------------------------ Dutch Friends ------------------------
---------------------------------------------------------------
- Bezoek ook eens mijn vrienden op:  http://www.Film-Test.nl --
----- voor mijn Nederlandse Sync. ondertitels ---- en meer ----
------- http://www.Film-Test.nl ---- voor Films en meer -------
---------------------------------------------------------------

General:

Complete name                    : Home of the BraveHome of the Brave.avi
Format                           : AVI
Format/Info                      : Audio Video Interleave
File size                        : 1.78 GiB
Duration                         : 1h 42mn
Overall bit rate                 : 2 501 Kbps

Video:

Format                           : MPEG-4 Visual
Format profile                   : Simple@L3
Format settings, BVOP            : No
Format settings, QPel            : No
Format settings, GMC             : No warppoints
Format settings, Matrix          : Default (H.263)
Codec ID                         : XVID
Codec ID/Hint                    : XviD
Duration                         : 1h 42mn
Bit rate                         : 2 042 Kbps
Width                            : 720 pixels
Height                           : 304 pixels
Display aspect ratio             : 2.35:1
Frame rate                       : 25.000 fps
Color space                      : YUV
Chroma subsampling               : 4:2:0
Bit depth                        : 8 bits
Scan type                        : Progressive
Compression mode                 : Lossy
Bits/(Pixel*Frame)               : 0.373
Stream size                      : 1.46 GiB (82%)
Writing library                  : XviD 1.1.2 (UTC 2006-11-01)

Audio:

Format                           : AC-3
Format/Info                      : Audio Coding 3
Mode extension                   : CM (complete main)
Codec ID                         : 2000
Duration                         : 1h 42mn
Bit rate mode                    : Constant
Bit rate                         : 448 Kbps
Channel(s)                       : 6 channels
Channel positions                : Front: L C R, Side: L R, LFE
Sampling rate                    : 48.0 KHz
Bit depth                        : 16 bits
Compression mode                 : Lossy
Stream size                      : 327 MiB (18%)
Alignment                        : Aligned on interleaves
Interleave, duration             : 32 ms (0.80 video frame)

